<svg xmlns="http://www.w3.org/2000/svg" height="512" viewBox="0 -6 511.998 511" width="512"><path d="M484.54 368.55v-51.007c8.925-4.445 14.651-13.766 14.651-24.04 0-15.112-7.87-28.417-19.718-36.05 11.023-7.91 18.222-20.824 18.222-35.394 0-7.45-1.886-14.47-5.199-20.606a37.42 37.42 0 0 0 11.723-10.07c7.172-9.352 9.531-21.262 6.469-32.672-7.954-29.625-22.754-57.352-42.797-80.176a4.43 4.43 0 0 0-.184-.203l-9.914-10.477c-2.848-2.996-7.582-3.125-10.582-.28a7.486 7.486 0 0 0-.277 10.581l9.8 10.356c23.356 26.64 34.371 54.984 39.496 74.078 1.848 6.879.43 14.055-3.886 19.683-4.282 5.579-10.77 8.778-17.809 8.778H37.465c-7.04 0-13.531-3.2-17.809-8.778-4.316-5.628-5.734-12.804-3.886-19.683 7.078-26.367 19.457-50.23 36.792-70.926 24.09-28.758 57.204-50.394 98.418-64.312 15.875-5.364 32.891-8.72 50.575-9.98 35.613-2.544 73.265-2.544 108.886 0 17.68 1.257 34.696 4.616 50.575 9.976 23.23 7.847 44.09 18.246 61.996 30.914a7.481 7.481 0 0 0 10.43-1.79 7.48 7.48 0 0 0-1.786-10.429c-19.094-13.508-41.25-24.566-65.851-32.875-17.082-5.77-35.348-9.379-54.297-10.73-36.32-2.586-74.707-2.586-111.016 0-18.953 1.355-37.222 4.964-54.3 10.73-43.86 14.812-79.22 37.988-105.102 68.887C22.344 104.43 8.96 130.223 1.312 158.71c-3.062 11.41-.707 23.32 6.465 32.672a37.434 37.434 0 0 0 11.727 10.07A43.22 43.22 0 0 0 14.3 222.06c0 14.57 7.203 27.484 18.226 35.394-11.851 7.633-19.722 20.938-19.722 36.05 0 10.274 5.726 19.599 14.656 24.04v51.008a33.545 33.545 0 0 0-13.05 10.031c-6.419 8.117-8.727 18.555-6.34 28.633 6.312 26.601 21.855 62.344 60.062 81.566 15.012 7.555 32.363 11.547 50.183 11.547H393.68c17.82 0 35.175-3.992 50.183-11.547 38.207-19.222 53.75-54.969 60.063-81.566 2.39-10.078.082-20.516-6.34-28.633a33.533 33.533 0 0 0-13.047-10.031zm-10.005-162.53c1.059 0 2.102-.055 3.14-.141a28.372 28.372 0 0 1 5.052 16.18c0 15.757-12.817 28.574-28.575 28.578H246.387L296.3 206.02zm-200.695 0l-69.488 62.113a18.773 18.773 0 0 1-25.04 0l-69.488-62.113zM29.27 222.059a28.366 28.366 0 0 1 5.054-16.18c1.04.082 2.082.14 3.14.14h49.9l49.913 44.618H57.844c-15.758-.004-28.574-12.82-28.574-28.578zm-1.497 71.445c0-15.383 12.516-27.899 27.903-27.899h98.347l15.313 13.688a33.663 33.663 0 0 0 22.496 8.598c8.04 0 16.082-2.868 22.492-8.598l15.317-13.688h226.683c15.383 0 27.899 12.516 27.899 27.899 0 4.73-2.625 8.973-6.692 10.816-6.422 2.914-10.86 7.508-14.777 11.559-5.563 5.754-9.582 9.914-18.195 9.914-8.614 0-12.63-4.16-18.192-9.914-6.234-6.45-13.996-14.477-28.957-14.477-14.96 0-22.719 8.028-28.95 14.477-5.562 5.754-9.581 9.914-18.19 9.914s-12.63-4.16-18.188-9.914c-6.234-6.45-13.996-14.477-28.953-14.477-14.961 0-22.719 8.028-28.953 14.477-5.563 5.754-9.578 9.914-18.192 9.914-8.609 0-12.625-4.156-18.187-9.91-6.23-6.453-13.992-14.48-28.95-14.48-14.96 0-22.718 8.027-28.949 14.48-5.562 5.754-9.578 9.91-18.187 9.91-8.61 0-12.625-4.156-18.188-9.91-6.23-6.453-13.992-14.48-28.949-14.48-14.96 0-22.719 8.027-28.953 14.476-5.562 5.754-9.578 9.914-18.187 9.914-8.614 0-12.63-4.156-18.188-9.91-3.918-4.055-8.36-8.649-14.781-11.563-4.063-1.84-6.688-6.086-6.688-10.816zm441.797 36.734v35.551h-80.402l35.223-31.484c4.988 3.636 11.312 6.457 20.168 6.457 11.992 0 19.351-5.157 25.011-10.524zM211.195 365.79H42.425v-35.547c5.66 5.363 13.02 10.52 25.005 10.52 14.96 0 22.718-8.028 28.953-14.48 5.562-5.755 9.578-9.91 18.187-9.91 8.61 0 12.63 4.155 18.192 9.91 6.23 6.452 13.988 14.48 28.949 14.48 6.945 0 12.328-1.742 16.738-4.242zm278.168 37.973c-5.578 23.504-19.164 55.015-52.226 71.652-12.934 6.508-27.961 9.945-43.457 9.945H118.316c-15.496 0-30.52-3.437-43.457-9.945-33.058-16.637-46.644-48.148-52.222-71.652-1.328-5.598-.047-11.395 3.515-15.899 3.57-4.515 8.934-7.105 14.711-7.105h187.078l41.02 36.664c8.73 7.8 19.953 11.898 31.297 11.898a46.601 46.601 0 0 0 18.394-3.77c3.801-1.624 5.559-6.027 3.93-9.827a7.48 7.48 0 0 0-9.828-3.926c-11.34 4.863-24.613 2.691-33.816-5.54l-88.836-79.402c.187-.19.375-.386.558-.574 5.563-5.754 9.578-9.914 18.188-9.914s12.625 4.16 18.187 9.914c6.235 6.45 13.992 14.477 28.95 14.477 14.96 0 22.722-8.028 28.953-14.477 5.562-5.754 9.578-9.914 18.19-9.914 8.61 0 12.63 4.16 18.188 9.914 6.235 6.45 13.993 14.477 28.954 14.477 14.96 0 22.718-8.028 28.953-14.477 5.558-5.754 9.578-9.914 18.187-9.914 7.445 0 11.461 3.113 16.004 7.672l-76.61 68.48a7.483 7.483 0 1 0 9.973 11.16l25.645-22.925h98.715c5.777 0 11.136 2.59 14.707 7.105a18.602 18.602 0 0 1 3.52 15.903zm0 0" data-original="#000000" class="active-path" data-old_color="#81b3d2" fill="#81b3d2"/><path d="M194.52 28.563l-1.282.12c-5.804.54-12.379 1.153-18.73 3.57-5.008 1.903-9.813 5.02-13.899 9.009-5.933 5.8-9.941 12.996-11.277 20.265-1.488 8.098.531 15.688 5.543 20.82 4.238 4.333 9.953 6.446 16.133 6.446 8.336 0 17.52-3.836 25.074-11.215a42.782 42.782 0 0 0 5.664-6.812c2.723-4.07 4.645-8.586 5.879-13.801.965-4.082 1.383-7.977 1.79-11.746l.151-1.395c.47-4.273-.91-8.394-3.78-11.312-2.876-2.918-6.985-4.352-11.266-3.95zm.011 15.054c-.375 3.461-.726 6.73-1.476 9.903v-.004c-.825 3.496-2.02 6.336-3.754 8.933a27.444 27.444 0 0 1-3.68 4.418c-7.52 7.348-16.598 8.543-20.039 5.02-2.152-2.203-1.883-5.742-1.531-7.653.773-4.191 3.328-8.66 7.02-12.265 2.59-2.532 5.699-4.563 8.757-5.727 4.422-1.683 9.645-2.176 14.703-2.648zm150.641-7.211c-4.074-2.722-8.59-4.644-13.805-5.879-4.082-.965-7.98-1.386-11.754-1.789l-1.386-.152c-4.27-.469-8.395.906-11.309 3.781-2.918 2.875-4.36 6.98-3.953 11.266l.12 1.273c.54 5.805 1.153 12.383 3.571 18.739 1.903 5.003 5.02 9.808 9.008 13.894 5.8 5.938 12.996 9.945 20.266 11.281 1.746.32 3.465.477 5.148.477 6.106 0 11.645-2.09 15.672-6.02 10.18-9.949 8.086-28.047-4.77-41.207a42.683 42.683 0 0 0-6.808-5.664zm1.121 36.16c-2.203 2.153-5.742 1.883-7.656 1.532-4.192-.77-8.66-3.328-12.262-7.016-2.531-2.59-4.566-5.703-5.727-8.758-1.68-4.422-2.175-9.648-2.648-14.707h.016c3.464.375 6.738.727 9.906 1.477 3.5.824 6.336 2.02 8.933 3.758a27.208 27.208 0 0 1 4.418 3.68c7.348 7.519 8.54 16.593 5.02 20.034zm-72.23-17.378c-2.344-3.477-4.922-6.43-7.415-9.286l-.921-1.054c-2.82-3.246-6.786-5-10.872-4.899-4.093.133-7.937 2.168-10.546 5.594l-.782 1.02c-3.539 4.628-7.55 9.874-10.09 16.183-1.996 4.969-2.968 10.613-2.808 16.32.226 8.297 2.797 16.121 7.226 22.036 4.813 6.418 11.528 10.062 18.5 10.062.184 0 .372 0 .555-.008 14.227-.394 24.973-15.11 24.461-33.5a42.564 42.564 0 0 0-1.16-8.785c-1.145-4.758-3.156-9.234-6.149-13.683zm-17.567 41.007c-3.082.094-5.492-2.511-6.66-4.07-2.555-3.41-4.106-8.32-4.246-13.473-.102-3.62.515-7.285 1.738-10.32 1.762-4.387 4.945-8.562 8.031-12.602l.016.016c2.29 2.625 4.453 5.102 6.273 7.805 2.004 2.98 3.282 5.781 4.012 8.82.442 1.844.695 3.762.746 5.703.297 10.508-4.988 17.985-9.91 18.121zm0 0" data-original="#000000" class="active-path" data-old_color="#81b3d2" fill="#81b3d2"/></svg>