<svg xmlns="http://www.w3.org/2000/svg" width="512" height="512"><path d="M481.616 149.553l-25.65-70.475c-8.486-23.316-34.36-35.383-57.675-26.894L351.13 69.35c.076-.461.155-.922.221-1.387 3.093-21.747-6.014-42.742-24.356-56.16C309.653-.884 287.46-3.518 267.632 4.754c-19.83 8.273-33.57 25.897-36.744 47.072l-6.738 43.457-34.842-30.799c-16.099-14.231-37.953-18.903-58.46-12.491-45.151 14.11-57.506 71.958-22.495 103.38a63.305 63.305 0 0 0 1.919 1.644L60.01 175.311c-23.367 8.505-35.401 34.302-26.893 57.674l25.651 70.475 31.942-11.554v175.096c0 24.812 19.986 44.999 44.799 44.999h299.992c24.812 0 44.999-20.186 44.999-44.999V240.008H233.099l248.517-90.455zm-73.065-69.179c7.77-2.828 16.397 1.193 19.224 8.965l15.392 42.285-140.95 51.302-20.52-56.38 126.854-46.172zM260.545 56.346c1.613-10.774 8.581-19.71 18.635-23.905 9.962-4.156 21.226-2.919 30.102 3.574 20.154 14.744 15.322 42.987-7.663 51.356l-30.184 10.986-18.445 6.713 7.555-48.724zm-7.04 80.46l20.52 56.379-28.19 10.261-20.52-56.38 28.19-10.26zm-113.71-56.182c10.269-3.208 21.376-.974 29.644 6.334l38.88 34.37c-11.28 4.106-37.952 13.814-48.77 17.75-10.89 3.961-22.537 1.706-31.16-6.034-18.042-16.192-11.165-45.366 11.406-52.42zM76.696 265.009l-15.391-42.285c-2.836-7.787 1.173-16.39 8.965-19.227l126.855-46.171 20.52 56.379-140.949 51.304zm253.806 4.998h120.197v196.995c0 8.271-6.929 15-15.2 15H330.502V270.007zm-59.998 0h30.199v211.994h-30.199V270.007zm-29.8 0v211.994H135.507c-8.271 0-15-6.729-15-15V280.987l30.166-10.98h90.031z" data-original="#000000" class="active-path" data-old_color="#81b3d2" fill="#81b3d2"/></svg>