<svg xmlns="http://www.w3.org/2000/svg" height="512" width="512"><path d="M222.818 305.907L309.472 256l-86.654-49.908zm0 0" data-original="#000000" class="active-path" data-old_color="#000000" fill="#50ABF1"/><path d="M483.968-10.395H28.03c-21.222 0-38.425 17.203-38.425 38.425v455.938c0 21.222 17.203 38.425 38.425 38.425h455.938c21.222 0 38.425-17.203 38.425-38.425V28.03c0-21.222-17.203-38.425-38.425-38.425zm-61.514 266.666s0 54.026-6.853 80.078c-3.841 14.26-15.085 25.503-29.344 29.34-26.052 6.857-130.258 6.857-130.258 6.857s-103.934 0-130.258-7.13c-14.26-3.837-25.503-15.084-29.344-29.344C89.54 310.297 89.54 256 89.54 256s0-54.022 6.857-80.073c3.837-14.26 15.357-25.78 29.344-29.617C151.793 139.452 256 139.452 256 139.452s104.206 0 130.258 7.13c14.26 3.837 25.503 15.084 29.344 29.344 7.13 26.051 6.853 80.345 6.853 80.345zm0 0" data-original="#000000" class="active-path" data-old_color="#000000" fill="#50ABF1"/></svg>