<svg xmlns="http://www.w3.org/2000/svg" viewBox="0 0 512 512"><path d="M325.581 111.282h46.654c9.995 0 18.128-8.132 18.128-18.128V18.187c0-9.996-8.132-18.128-18.128-18.128H308.17A75.982 75.982 0 0 0 304.994 0c-12.088 0-54.123 2.385-87.472 33.064-36.401 33.493-32.918 73.557-31.386 83.435v48.84h-46.371c-9.995 0-18.128 8.132-18.128 18.128v80.629c0 9.997 8.132 18.13 18.128 18.13h43.688v211.647c0 9.995 8.132 18.128 18.128 18.128h91.368c9.995 0 18.128-8.133 18.128-18.128V283.271h51.749c9.214 0 16.956-6.903 18.009-16.056l9.409-81.672a18.147 18.147 0 0 0-4.477-14.14 18.149 18.149 0 0 0-13.53-6.063h-61.156v-40.997c-.002-8.471 2.309-13.061 14.5-13.061zm-24.7 74.457h68.807l-8.886 77.134h-59.924c-5.632 0-10.199 4.566-10.199 10.199v218.53H203.85V272.026c0-5.633-4.567-10.199-10.199-10.199h-51.617v-76.09h54.301c5.632 0 10.199-4.566 10.199-10.199V115.67c0-.585-.05-1.17-.15-1.747-1.075-6.175-4.918-38.365 24.95-65.847 27.915-25.681 63.439-27.677 73.661-27.677 1.433 0 2.286.038 2.442.046.168.008.336.012.504.012h62.026v70.428h-44.385c-21.854 0-34.901 12.508-34.901 33.458v51.196c0 5.634 4.568 10.2 10.2 10.2z"/><path d="M224.382 343.713c-5.632 0-10.199 4.566-10.199 10.199v5.1c0 5.633 4.567 10.199 10.199 10.199s10.199-4.566 10.199-10.199v-5.1c0-5.633-4.568-10.199-10.199-10.199zm0 37.737c-5.632 0-10.199 4.566-10.199 10.199v77.514c0 5.633 4.567 10.199 10.199 10.199s10.199-4.566 10.199-10.199v-77.514c0-5.633-4.568-10.199-10.199-10.199z"/></svg>