<svg xmlns="http://www.w3.org/2000/svg" viewBox="0 0 191.99 191.99" width="512" height="512"><path d="M187.99 13.128h-.014a4 4 0 0 0-3.987 3.995v.494c-.182 17.381-17.137 46.657-23.656 56.475-6.666 10.036-15.593 14.695-20.745 16.675-1.341-8.707-5.56-26.238-18.129-31.752l-.431-.189c-7.092-3.102-15.996-4.81-25.069-4.81-9.074 0-17.978 1.708-25.08 4.814l-.429.188C57.886 64.53 53.669 82.06 52.328 90.766c-5.158-1.98-14.081-6.64-20.745-16.674C25.071 64.286 8.141 35.016 8 17.559v-.431a4 4 0 0 0-3.984-4H4a4.001 4.001 0 0 0-4 3.969v64.652c0 53.157 42.721 96.72 95.231 97.109l.727.003h.005c25.629 0 49.727-9.981 67.848-28.104 18.124-18.124 28.104-42.222 28.104-67.85l.073-65.249c.001-.188.002-.375 0-.563a3.998 3.998 0 0 0-3.998-3.967zm-69.333 110.425c-1.756 2.108-4.126 3.179-7.248 3.271a22.1 22.1 0 0 1-.623.009h-.002c-2.893 0-4.237-.641-4.509-1.189-1.024-2.067 1.999-8.584 5.383-13.026a4.002 4.002 0 0 0-3.176-6.431H83.434c-1.521 0-2.909.864-3.583 2.227s-.517 2.992.405 4.201c3.388 4.445 6.412 10.962 5.388 13.029-.272.549-1.617 1.189-4.512 1.189-.203 0-.412-.003-.625-.009-3.122-.092-5.492-1.162-7.248-3.271-4.835-5.808-4.193-18.113-3.539-22.36.012-.077.022-.154.03-.232.013-.129 1.464-13.043 8.827-15.535 7.542-2.555 14.252-5.69 17.381-7.227 3.129 1.536 9.839 4.672 17.381 7.227 6.162 2.086 8.461 11.928 8.827 15.535.007.075.018.154.029.229.655 4.25 1.297 16.556-3.538 22.363z" data-original="#000000" class="active-path" data-old_color="#6D3702" fill="#6C3702"/></svg>