<svg xmlns="http://www.w3.org/2000/svg" width="512" height="512" viewBox="0 0 168.107 168.108"><path d="M148.759 61.845c9.105 7.705 8.867 10.914 8.988 14.457.435 12.211-20.025 3.423-25.38 0-33.297-21.3-35.874-20.386-47.874-16.386l-.437.17-.428-.17c-11.999-4-14.586-4.914-47.875 16.386-5.351 3.423-25.813 12.211-25.393 0 .128-3.543-.1-6.752 9-14.457 0 0-26.136.963-17.676 27.954 4.09 13.04 15.803 36.602 82.364 4.63 66.567 31.972 78.277 8.41 82.364-4.63 8.484-26.996-17.653-27.954-17.653-27.954z" data-original="#000000" class="active-path" data-old_color="#000000" fill="#6C3702"/></svg>