<svg xmlns="http://www.w3.org/2000/svg" width="512" height="512" viewBox="0 0 380.628 380.627"><path d="M168.104 146.719l-89.552 13.826c-1.337-1.22-2.738-2.382-4.244-3.398-16.582-11.216-40.759-8.081-57.486 7.462-9.284 8.646-15.151 19.897-16.518 31.697-1.407 12.203 2.096 23.529 9.879 31.902a36.861 36.861 0 0 0 6.422 5.5v.023c12.699 8.57 29.817 8.711 44.659 1.366.631.759 1.337 1.483 2.213 2.056 4.904 3.339 11.561 2.031 14.889-2.861 2.592-3.83 2.341-8.723-.228-12.25 6.936-7.94 11.332-17.527 12.471-27.493.73-6.265.129-12.29-1.652-17.813l87.923-7.117-8.776-22.9zm-90.24 46.346c-1.004 8.787-5.453 17.206-12.5 23.78-12.395 11.491-29.882 14.141-41.559 6.224a24.36 24.36 0 0 1-4.209-3.608c-5.19-5.582-7.497-13.265-6.533-21.685 1.022-8.787 5.465-17.218 12.512-23.757 12.383-11.525 29.881-14.159 41.564-6.242a23.887 23.887 0 0 1 4.204 3.608c5.167 5.589 7.484 13.279 6.521 21.68zm144.271-27.131l152.503-98.205 5.99-10.451-110.092 50.34-49.464 58.415z" data-original="#000000" class="active-path" data-old_color="#000000" fill="#6C3702"/><path d="M123.656 333.827c5.815-1.086 11.531-3.188 16.909-6.235 19.839-11.315 30.051-33.466 24.3-52.64-.514-1.752-1.208-3.422-1.985-5.057l48.676-103.716 135.7-160.292-14.409 8.454L177.37 149.34l8.32 21.737-39.037 81.593c-3.818-2.09-8.051-3.596-12.629-4.46-11.683-2.242-24.177.023-35.189 6.294-19.828 11.291-30.051 33.455-24.3 52.629a36.913 36.913 0 0 0 3.34 7.766c3.152 5.522 7.613 10.03 12.996 13.357 10.615 13.254 1.658 32.848 1.314 37.613-.356 4.857 8.361 10.637 10.323 8.359 1.875-2.136 5.903-34.843 21.148-40.401zm71.586-175.256c-2.581-2.68-2.487-6.913.187-9.505 2.674-2.575 6.937-2.499 9.494.193a6.713 6.713 0 0 1-.176 9.493c-2.674 2.569-6.935 2.487-9.505-.181zm-61.048 157.881c-8.361 4.752-17.731 6.469-26.414 4.811-8.314-1.576-14.97-6.084-18.742-12.705a23.69 23.69 0 0 1-2.184-5.103c-4.058-13.511 3.667-29.415 18.362-37.799 8.36-4.765 17.737-6.469 26.425-4.834 8.303 1.588 14.977 6.106 18.742 12.716a25.34 25.34 0 0 1 2.184 5.104c4.047 13.497-3.677 29.401-18.373 37.81z" data-original="#000000" class="active-path" data-old_color="#000000" fill="#6C3702"/></svg>